<?xml version="1.0" encoding="UTF-8" standalone="no"?>
<!-- Created with Inkscape (http://www.inkscape.org/) -->

<svg
   width="120"
   height="120"
   viewBox="0 0 120 120"
   version="1.1"
   id="svg5"
   xml:space="preserve"
   inkscape:version="1.2.2 (b0a8486541, 2022-12-01)"
   sodipodi:docname="logo.svg"
   inkscape:export-filename="cmd/geoTableauServer/geoTableauFront/src/assets/geoTableau.png"
   inkscape:export-xdpi="96"
   inkscape:export-ydpi="96"
   xmlns:inkscape="http://www.inkscape.org/namespaces/inkscape"
   xmlns:sodipodi="http://sodipodi.sourceforge.net/DTD/sodipodi-0.dtd"
   xmlns="http://www.w3.org/2000/svg"
   xmlns:svg="http://www.w3.org/2000/svg"><sodipodi:namedview
     id="namedview7"
     pagecolor="#ffffff"
     bordercolor="#000000"
     borderopacity="0.25"
     inkscape:showpageshadow="2"
     inkscape:pageopacity="0.0"
     inkscape:pagecheckerboard="true"
     inkscape:deskcolor="#d1d1d1"
     inkscape:document-units="px"
     showgrid="false"
     inkscape:zoom="6.7083333"
     inkscape:cx="47.850932"
     inkscape:cy="60"
     inkscape:window-width="1854"
     inkscape:window-height="1011"
     inkscape:window-x="66"
     inkscape:window-y="32"
     inkscape:window-maximized="1"
     inkscape:current-layer="layer1" /><defs
     id="defs2" /><g
     inkscape:label="Layer 1"
     inkscape:groupmode="layer"
     id="layer1"><g
       id="g60"
       transform="matrix(0.88197495,0,0,0.88197495,5.8114591,5.8114591)"><path
         class="st1"
         d="m 61.44,0 c 33.93,0 61.44,27.51 61.44,61.44 0,33.93 -27.51,61.44 -61.44,61.44 C 27.51,122.88 0,95.37 0,61.44 0,27.51 27.51,0 61.44,0 Z"
         id="path56" /><path
         class="st0"
         d="M 11.76,93.18 C 8.14,87.69 5.43,81.54 3.84,74.95 l 10.82,5.22 0.06,3.23 c 0,1.19 -2.02,3.71 -2.67,4.67 z M 78.31,6.5 c 20.62,6.85 36.09,25 39.07,47.1 l -1.95,-0.21 c -0.35,1.5 -0.67,1.53 -0.67,3.33 0,1.59 2,2.65 2,6 0,0.9 -2.11,2.69 -2.2,3.01 l -3.13,-3.67 v 4.67 l -0.47,-0.02 -0.84,-8.62 -1.75,0.55 -2.08,-6.41 -6.85,7.16 -0.08,5.24 -2.24,1.5 -2.38,-13.44 -1.42,1.04 -3.22,-4.35 -4.81,0.14 -1.84,-2.11 -1.89,0.52 -3.71,-4.25 -0.72,0.49 2.3,5.88 h 2.67 v -1.33 h 1.33 c 0.96,2.66 2,1.08 2,2.67 0,5.55 -6.85,9.63 -11.34,10.67 0.24,1 0.15,2 1.33,2 2.51,0 1.26,-0.44 4,-0.67 -0.13,5.67 -6.5,12.44 -9.22,16.65 l 1.22,8.69 c 0.32,1.89 -3.92,3.88 -5.36,6.01 l 0.69,3.33 -1.95,0.79 c -0.34,3.42 -3.66,7.21 -7.39,7.21 h -4 c 0,-4.68 -3.34,-11.37 -3.34,-14.68 0,-2.81 1.33,-3.19 1.33,-6.67 0,-3.22 -3.33,-7.83 -3.33,-8.67 V 70.71 H 45.4 c -0.4,-1.49 -0.15,-2 -2,-2 h -0.67 c -2.91,0 -2.42,1.33 -5.34,1.33 h -2.67 c -2.41,0 -6.67,-7.72 -6.67,-8.67 v -8 c 0,-3.45 3.16,-7.21 5.34,-8.67 v -3.33 l 3,-3.05 1.67,-0.28 c 3.58,0 3.15,-2 5.34,-2 h 6 v 4.67 l 6.6,2.82 0.62,-2.85 c 2.99,0.7 3.77,2.03 7.45,2.03 h 1.33 c 2.53,0 2.67,-3.36 2.67,-6 l -5.34,0.53 -2.33,-5.06 -2.31,0.61 c 0.42,1.81 0.64,1.06 0.64,2.59 0,0.9 -0.74,1 -1.34,1.33 l -2.31,-5.86 -4.97,-3.55 -0.66,0.65 4.23,4.45 c -0.56,1.6 -0.63,6.21 -2.96,2.98 l 2.18,-1.05 -5.44,-5.7 -3.26,1.27 -3.22,3.08 c -0.34,2.48 -1.01,3.73 -3.61,3.73 -1.73,0 -0.69,-0.45 -3.34,-0.67 v -6.67 h 6 l -1.95,-4.44 -0.72,0.44 v -1.34 l 9.75,-4.49 c -0.18,-1.4 -0.41,-0.65 -0.41,-2.18 0,-0.09 0.65,-1.32 0.67,-1.34 l 2.52,1.57 -0.6,-2.87 -3.89,0.8 -0.72,-3.49 c 3.08,-1.62 9.87,-7.34 12.03,-7.34 h 2 c 2.11,0 7.75,2.08 8.67,3.33 L 62.03,7.48 66,10.75 66.38,9.35 69.34,8.54 69.38,6.69 h 1.34 v 2 z"
         id="path58" /></g><rect
       style="fill:#ffffff;fill-opacity:1;stroke:#000000;stroke-width:0.900884;stroke-dasharray:none;stroke-opacity:1"
       id="rect1038"
       width="63.897091"
       height="50.572201"
       x="46.52729"
       y="57.03001" /><path
       class="st0"
       d="m 46.975909,52.796669 h 63.036951 c 1.67663,0 3.04945,1.372815 3.04945,3.049449 v 51.581822 c 0,1.67664 -1.37282,3.04945 -3.04945,3.04945 H 46.975909 c -1.676634,0 -3.049449,-1.37281 -3.049449,-3.04945 V 55.846118 c 0,-1.676634 1.372815,-3.049449 3.049449,-3.049449 z m 1.721645,13.266791 h 16.665069 c 0.461356,0 0.832691,0.376962 0.832691,0.832691 v 5.491259 c 0,0.455729 -0.376961,0.832691 -0.832691,0.832691 H 48.697554 c -0.45573,0 -0.832691,-0.376962 -0.832691,-0.832691 v -5.491259 c -0.0056,-0.455729 0.371335,-0.832691 0.832691,-0.832691 z m 42.92859,33.065705 h 16.670696 c 0.46136,0 0.83269,0.376961 0.83269,0.832691 v 5.491254 c 0,0.45573 -0.37696,0.83269 -0.83269,0.83269 H 91.626144 c -0.45573,0 -0.832691,-0.37696 -0.832691,-0.83269 v -5.491254 c -0.0056,-0.45573 0.371335,-0.832691 0.832691,-0.832691 z m -21.368648,0 h 16.473776 c 0.461355,0 0.832691,0.376961 0.832691,0.832691 v 5.491254 c 0,0.45573 -0.376962,0.83269 -0.832691,0.83269 H 70.257496 c -0.45573,0 -0.832691,-0.37696 -0.832691,-0.83269 v -5.491254 c -0.0056,-0.45573 0.371335,-0.832691 0.832691,-0.832691 z m -21.559942,0 h 16.665069 c 0.461356,0 0.832691,0.376961 0.832691,0.832691 v 5.491254 c 0,0.45573 -0.376961,0.83269 -0.832691,0.83269 H 48.697554 c -0.45573,0 -0.832691,-0.37696 -0.832691,-0.83269 v -5.491254 c -0.0056,-0.45573 0.371335,-0.832691 0.832691,-0.832691 z m 42.92859,-11.021902 h 16.670696 c 0.46136,0 0.83269,0.376962 0.83269,0.832691 v 5.491259 c 0,0.455729 -0.37696,0.832691 -0.83269,0.832691 H 91.626144 c -0.45573,0 -0.832691,-0.376962 -0.832691,-0.832691 v -5.491259 c -0.0056,-0.455729 0.371335,-0.832691 0.832691,-0.832691 z m -21.368648,0 h 16.473776 c 0.461355,0 0.832691,0.376962 0.832691,0.832691 v 5.491259 c 0,0.455729 -0.376962,0.832691 -0.832691,0.832691 H 70.257496 c -0.45573,0 -0.832691,-0.376962 -0.832691,-0.832691 v -5.491259 c -0.0056,-0.455729 0.371335,-0.832691 0.832691,-0.832691 z m -21.559942,0 h 16.665069 c 0.461356,0 0.832691,0.376962 0.832691,0.832691 v 5.491259 c 0,0.455729 -0.376961,0.832691 -0.832691,0.832691 H 48.697554 c -0.45573,0 -0.832691,-0.376962 -0.832691,-0.832691 v -5.491259 c -0.0056,-0.455729 0.371335,-0.832691 0.832691,-0.832691 z m 42.92859,-11.021901 h 16.670696 c 0.46136,0 0.83269,0.376961 0.83269,0.832691 v 5.491259 c 0,0.455729 -0.37696,0.83269 -0.83269,0.83269 H 91.626144 c -0.45573,0 -0.832691,-0.376961 -0.832691,-0.83269 v -5.491259 c -0.0056,-0.45573 0.371335,-0.832691 0.832691,-0.832691 z m -21.368648,0 h 16.473776 c 0.461355,0 0.832691,0.376961 0.832691,0.832691 v 5.491259 c 0,0.455729 -0.376962,0.83269 -0.832691,0.83269 H 70.257496 c -0.45573,0 -0.832691,-0.376961 -0.832691,-0.83269 v -5.491259 c -0.0056,-0.45573 0.371335,-0.832691 0.832691,-0.832691 z m -21.559942,0 h 16.665069 c 0.461356,0 0.832691,0.376961 0.832691,0.832691 v 5.491259 c 0,0.455729 -0.376961,0.83269 -0.832691,0.83269 H 48.697554 c -0.45573,0 -0.832691,-0.376961 -0.832691,-0.83269 v -5.491259 c -0.0056,-0.45573 0.371335,-0.832691 0.832691,-0.832691 z M 91.626144,66.06346 h 16.670696 c 0.46136,0 0.83269,0.376962 0.83269,0.832691 v 5.491259 c 0,0.455729 -0.37696,0.832691 -0.83269,0.832691 H 91.626144 c -0.45573,0 -0.832691,-0.376962 -0.832691,-0.832691 v -5.491259 c -0.0056,-0.455729 0.371335,-0.832691 0.832691,-0.832691 z m -21.368648,0 h 16.473776 c 0.461355,0 0.832691,0.376962 0.832691,0.832691 v 5.491259 c 0,0.455729 -0.376962,0.832691 -0.832691,0.832691 H 70.257496 c -0.45573,0 -0.832691,-0.376962 -0.832691,-0.832691 v -5.491259 c -0.0056,-0.455729 0.371335,-0.832691 0.832691,-0.832691 z"
       id="path271"
       style="fill:#00d6d1;stroke-width:1.163;stroke:#000000;stroke-opacity:1;fill-opacity:1;stroke-dasharray:none" /></g><style
     type="text/css"
     id="style54"><![CDATA[
	.st0{fill-rule:evenodd;clip-rule:evenodd;fill:#A1E367;}
	.st1{fill-rule:evenodd;clip-rule:evenodd;fill:#2394E0;}
]]></style><style
     type="text/css"
     id="style269">.st0{fill-rule:evenodd;clip-rule:evenodd;}</style></svg>
